<?xml version="1.0" encoding="UTF-8"?> <!-- Generator: Adobe Illustrator 26.0.3, SVG Export Plug-In . SVG Version: 6.00 Build 0) --> <svg xmlns="http://www.w3.org/2000/svg" xmlns:xlink="http://www.w3.org/1999/xlink" version="1.1" id="Layer_1" x="0px" y="0px" width="100px" height="100px" viewBox="0 0 100 100" style="enable-background:new 0 0 100 100;" xml:space="preserve"> <g> <g> <path d="M46.9,89C46.9,89,46.9,88.9,46.9,89c1-0.6,2.1-0.9,3.2-0.8c1.4,0.1,2.9,0.1,4.5,0c1.4-0.1,2.7-0.3,4-0.5 c0.6-0.1,1.3-0.3,1.9-0.5c0.6-0.3,1.2-0.6,1.6-1.1c0.1-0.1,0.2-0.3,0.3-0.4c0.1,0,0.1-0.1,0.2-0.1c0.1-0.1,0.3-0.2,0.4-0.4l0-0.1 l0,0l0,0c0,0,0,0,0,0l0-0.1c0-0.1,0.1-0.2,0.1-0.3c0.1-0.4,0-0.8-0.1-1.1c-0.1-0.3-0.3-0.5-0.5-0.7c-0.2-0.2-0.4-0.3-0.6-0.5 c-0.1-0.1-0.2-0.1-0.3-0.2l-0.3-0.1c-0.2-0.1-0.4-0.2-0.6-0.2c-0.2-0.1-0.4-0.1-0.7-0.2C59,81.5,58,81.4,57,81.4 c-2,0.1-4.1,0.7-6,1.6c-2,0.9-3.8,2.1-5.7,3.2c-1.9,1.1-3.8,2-5.8,2.3c-1,0.2-2,0.2-3,0.1c-1-0.1-2-0.4-2.9-0.7 c-0.9-0.3-1.8-0.8-2.6-1.3c-0.8-0.5-1.5-1.1-2.2-1.8c-1.2-1.3-2.2-2.8-2.6-4.4c-0.5-1.6-0.6-3.2-0.5-4.6c0.2-2.9,1.3-5.2,2.3-6.6 c0.2-0.4,0.5-0.7,0.7-0.9c0.2-0.3,0.4-0.5,0.6-0.6c0.3-0.3,0.5-0.5,0.5-0.5s-0.2,0.1-0.6,0.4c-0.2,0.1-0.4,0.3-0.7,0.5 c-0.3,0.2-0.6,0.5-0.9,0.8c-0.6,0.6-1.3,1.5-2,2.6C25,72.6,24.4,74,24,75.6c-0.3,1.6-0.4,3.5,0,5.4c0.3,2,1.3,4,2.7,5.7 c0.7,0.9,1.6,1.7,2.5,2.4c1,0.7,2,1.3,3.2,1.8c1.2,0.5,2.4,0.8,3.7,1c1.3,0.2,2.6,0.2,3.9-0.1C42.7,91.4,45,90.2,46.9,89z"></path> <path d="M76.2,75.3c-0.1-2.2-0.6-4.5-1.4-6.7c-0.4-1.1-0.9-2.1-1.5-3.2c-0.6-1-1.2-2-1.9-2.9c-1.4-1.9-2.9-3.7-4.6-5.3 c-3.3-3.3-6.8-6.2-9.7-9.2c-3-3-5.7-6.1-8.1-9.2c-2.4-3.1-4.4-6.2-6.2-9.2c-0.9-1.5-1.7-3-2.5-4.4c-0.4-0.7-0.7-1.4-1.1-2.1 c-0.4-0.7-0.7-1.4-1-2.1c-2.5-5.4-4-10-4.9-13.3c-0.5-1.6-0.8-2.9-1-3.7c-0.2-0.9-0.3-1.3-0.3-1.3s0.1,0.5,0.2,1.3 c0.1,0.9,0.3,2.2,0.6,3.8c0.6,3.3,1.7,8.1,3.9,13.8c0.3,0.7,0.5,1.4,0.9,2.2c0.3,0.7,0.6,1.5,0.9,2.2c0.7,1.5,1.4,3.1,2.3,4.7 c1.7,3.2,3.6,6.5,5.9,9.8c2.3,3.3,5,6.6,8.1,9.8c3,3.2,6.5,6.1,9.6,9.3c1.6,1.6,3,3.2,4.3,4.9c0.6,0.9,1.2,1.7,1.7,2.6 c0.5,0.9,1,1.8,1.3,2.7c1.5,3.7,1.9,7.8,0.8,11.2c-0.5,1.7-1.4,3.2-2.5,4.5c-1.2,1.2-2.6,2.2-4.1,2.8c-3,1.3-6.3,1.8-9.2,2.2 c-3,0.4-5.7,0.8-8.1,1.3c-2.4,0.5-4.4,1.3-5.8,2.1c-1.5,0.9-2.5,1.8-3.1,2.4c-0.3,0.3-0.5,0.6-0.6,0.8c-0.1,0.2-0.2,0.3-0.2,0.3 s0.1-0.1,0.2-0.2c0.2-0.2,0.4-0.4,0.7-0.7c0.6-0.6,1.7-1.4,3.2-2.1c1.5-0.7,3.5-1.2,5.8-1.6c2.3-0.3,5-0.5,8-0.7 c3-0.2,6.4-0.5,9.9-1.8c1.8-0.7,3.5-1.7,5-3.1c1.5-1.4,2.7-3.3,3.4-5.4C76.1,79.7,76.3,77.5,76.2,75.3z"></path> </g> </g> </svg> 