<?xml version="1.0" encoding="UTF-8"?> <!-- Generator: Adobe Illustrator 26.0.3, SVG Export Plug-In . SVG Version: 6.00 Build 0) --> <svg xmlns="http://www.w3.org/2000/svg" xmlns:xlink="http://www.w3.org/1999/xlink" version="1.1" id="Layer_1" x="0px" y="0px" width="100px" height="100px" viewBox="0 0 100 100" style="enable-background:new 0 0 100 100;" xml:space="preserve"> <g> <path d="M50,21.8L50,21.8c-1,0-1.8,0.8-1.8,1.8V50h3.7V23.7C51.8,22.7,51,21.8,50,21.8z"></path> <path d="M34.2,59.1L34.2,59.1c0.5,0.9,1.6,1.2,2.5,0.7L51,51.5l-1.8-3.2l-14.3,8.3C34,57.1,33.7,58.3,34.2,59.1z"></path> <g> <path d="M50,2.4C23.7,2.4,2.4,23.7,2.4,50S23.7,97.6,50,97.6S97.6,76.3,97.6,50S76.3,2.4,50,2.4z M50,91.2 C27.2,91.2,8.8,72.8,8.8,50S27.2,8.8,50,8.8S91.2,27.2,91.2,50S72.8,91.2,50,91.2z"></path> <rect x="48" y="12.7" width="3.9" height="6.3"></rect> <rect x="30.9" y="17.3" transform="matrix(0.866 -0.5 0.5 0.866 -5.7976 19.1951)" width="3.9" height="6.3"></rect> <rect x="18.4" y="29.8" transform="matrix(0.5 -0.866 0.866 0.5 -18.3013 34.1407)" width="3.9" height="6.3"></rect> <rect x="12.7" y="48" width="6.3" height="3.9"></rect> <rect x="17.3" y="65.1" transform="matrix(0.866 -0.5 0.5 0.866 -30.805 19.1951)" width="6.3" height="3.9"></rect> <rect x="29.8" y="77.6" transform="matrix(0.5 -0.866 0.866 0.5 -52.4619 68.3012)" width="6.3" height="3.9"></rect> <rect x="48" y="81" width="3.9" height="6.3"></rect> <rect x="65.1" y="76.4" transform="matrix(0.866 -0.5 0.5 0.866 -30.805 44.2025)" width="3.9" height="6.3"></rect> <rect x="77.6" y="63.9" transform="matrix(0.5 -0.866 0.866 0.5 -18.3013 102.4618)" width="3.9" height="6.3"></rect> <rect x="81" y="48" width="6.3" height="3.9"></rect> <rect x="76.4" y="30.9" transform="matrix(0.866 -0.5 0.5 0.866 -5.7976 44.2024)" width="6.3" height="3.9"></rect> <rect x="63.9" y="18.4" transform="matrix(0.5 -0.866 0.866 0.5 15.8594 68.3013)" width="6.3" height="3.9"></rect> <circle cx="50" cy="50" r="2.7"></circle> </g> </g> </svg> 