<?xml version="1.0" encoding="UTF-8"?> <!-- Generator: Adobe Illustrator 26.0.3, SVG Export Plug-In . SVG Version: 6.00 Build 0) --> <svg xmlns="http://www.w3.org/2000/svg" xmlns:xlink="http://www.w3.org/1999/xlink" version="1.1" id="Layer_1" x="0px" y="0px" width="100px" height="100px" viewBox="0 0 100 100" style="enable-background:new 0 0 100 100;" xml:space="preserve"> <style type="text/css"> .st0{fill:none;stroke:#000000;stroke-width:6;stroke-linecap:round;stroke-linejoin:round;stroke-miterlimit:10;} </style> <g> <path class="st0" d="M91.5,87H8.5c-1.6,0-2.9-1.3-2.9-2.9V29.4c0-1.6,1.3-2.9,2.9-2.9h82.9c1.6,0,2.9,1.3,2.9,2.9v54.7 C94.4,85.7,93.1,87,91.5,87z"></path> <path class="st0" d="M63.5,20.5v-4c0-1.9-1.6-3.5-3.5-3.5H40c-1.9,0-3.5,1.6-3.5,3.5v4"></path> <path class="st0" d="M5.6,48.7l33.5,13.4c7,2.8,14.8,2.8,21.7,0l33.5-13.4"></path> <path class="st0" d="M53.1,50.8h-6.3c-2,0-3.6-1.6-3.6-3.6v-1.9c0-2,1.6-3.6,3.6-3.6h6.3c2,0,3.6,1.6,3.6,3.6v1.9 C56.8,49.2,55.1,50.8,53.1,50.8z"></path> </g> </svg> 