<?xml version="1.0" encoding="UTF-8"?> <!-- Generator: Adobe Illustrator 26.0.3, SVG Export Plug-In . SVG Version: 6.00 Build 0) --> <svg xmlns="http://www.w3.org/2000/svg" xmlns:xlink="http://www.w3.org/1999/xlink" version="1.1" id="Layer_1" x="0px" y="0px" width="100px" height="100px" viewBox="0 0 100 100" style="enable-background:new 0 0 100 100;" xml:space="preserve"> <path d="M34.8,73.8l35.6-34.6c1.2-1.2,2.9-1.7,4.6-1.4c5.1,1,10.5-0.5,14.4-4.4c3.6-3.6,5.1-8.4,4.6-13c-0.1-1.1-1.4-1.5-2.2-0.7 l-6.3,6.3c-1.1,1.1-2.9,1.4-4.3,0.5c-3-1.9-5.6-4.5-7.5-7.5c-0.9-1.4-0.7-3.2,0.5-4.3l6.3-6.3c0.8-0.8,0.3-2-0.8-2.2 C75,5.6,70.1,7.2,66.5,11c-3.7,3.9-5.1,9.1-4.2,14c0.3,1.7-0.2,3.4-1.4,4.6L26.3,65.1c-1.2,1.2-2.9,1.8-4.6,1.5 c-4.4-0.7-9.1,0.8-12.4,4.5c-4.6,5.2-4.6,13.2,0.1,18.4c5.3,5.8,14.4,6,19.9,0.5c3.2-3.2,4.5-7.5,3.9-11.7 C33,76.6,33.6,74.9,34.8,73.8z M17.6,87.6l-5.4-5.4l2-7.4l7.4-2l5.4,5.4l-2,7.4L17.6,87.6z"></path> </svg> 