<?xml version="1.0" encoding="UTF-8"?> <!-- Generator: Adobe Illustrator 26.0.3, SVG Export Plug-In . SVG Version: 6.00 Build 0) --> <svg xmlns="http://www.w3.org/2000/svg" xmlns:xlink="http://www.w3.org/1999/xlink" version="1.1" id="Layer_1" x="0px" y="0px" width="147px" height="146.8px" viewBox="0 0 147 146.8" style="enable-background:new 0 0 147 146.8;" xml:space="preserve"> <g> <path d="M73.4,0C32.8,0-0.1,32.9,0,73.5C0.1,114,33.1,147,73.5,146.8c40.6,0,73.4-32.9,73.4-73.5C146.9,32.7,114-0.2,73.4,0z M48.6,96.5H38v-3.8c-3.4,2.1-7.5,3.4-11.9,3.4C13.5,96.2,3.3,86,3.3,73.5c0-12.5,10.1-22.7,22.8-22.7c12.3,0,22.6,10.2,22.6,22.6 L48.6,96.5z M73.9,97.3c-12.8,0-23-10.4-23-23.1L50.6,40h10.5l0.3,14.8c3.4-2.5,7.8-3.8,12.4-3.8c12.7,0,22.9,10.4,22.9,23.1 C96.8,86.8,86.6,97.3,73.9,97.3z M121.1,97c-12.3,0-22.2-10-22.2-22.2c0-12.2,9.9-22.4,22.2-22.4c11.3,0,20.5,8.3,22.1,19.1h-9.9 C131.9,66.1,127,62,121,62c-7,0-12.7,5.7-12.7,12.8c0,7,5.7,12.7,12.7,12.7c5.3,0,10-3.4,11.7-8.1l10.2-0.1 C140.8,89.4,131.9,97,121.1,97z"></path> <path d="M26,61.1c-6.9,0-12.5,5.6-12.5,12.4c0,6.9,5.6,12.4,12.6,12.4c6.7-0.1,12.3-5.6,12.3-12.4C38.4,66.7,32.8,61.1,26,61.1z"></path> <path d="M74.3,61.5c-7.1,0-12.7,5.5-12.7,12.6c0,7.1,5.6,12.6,12.7,12.6c7,0,12.6-5.6,12.6-12.6C86.8,67.1,81.2,61.5,74.3,61.5z"></path> </g> </svg> 