<?xml version="1.0" encoding="UTF-8"?> <!-- Generator: Adobe Illustrator 26.0.3, SVG Export Plug-In . SVG Version: 6.00 Build 0) --> <svg xmlns:cc="http://creativecommons.org/ns#" xmlns:dc="http://purl.org/dc/elements/1.1/" xmlns:rdf="http://www.w3.org/1999/02/22-rdf-syntax-ns#" xmlns="http://www.w3.org/2000/svg" xmlns:xlink="http://www.w3.org/1999/xlink" version="1.1" id="Layer_1" x="0px" y="0px" width="374.4px" height="177.2px" viewBox="0 0 374.4 177.2" style="enable-background:new 0 0 374.4 177.2;" xml:space="preserve"> <style type="text/css"> .st0{fill-rule:evenodd;clip-rule:evenodd;fill:#002D72;} .st1{fill:#002D72;} </style> <g> <g> <path class="st0" d="M180,53.8c-1.5-0.6-3-1-4.6-1.4c-0.3,1.1-0.8,2.1-1.3,3.1c1.2,0.3,2.5,0.6,3.7,1.1 C178.7,55.8,179.4,54.8,180,53.8 M160.1,56.6c1.2-0.4,2.4-0.8,3.6-1c-0.5-1-1-2-1.3-3.1c-1.5,0.3-3.1,0.8-4.5,1.4 C158.5,54.8,159.3,55.8,160.1,56.6 M157.9,40.9c1.5,0.6,3,1,4.5,1.4c0.3-1.1,0.8-2.1,1.3-3.1c-1.2-0.3-2.5-0.6-3.6-1 C159.3,38.9,158.5,39.9,157.9,40.9 M177.8,38.1c-1.2,0.4-2.4,0.8-3.7,1.1c0.5,1,1,2,1.3,3.1c1.5-0.3,3.1-0.8,4.6-1.4 C179.4,39.9,178.7,38.9,177.8,38.1 M181.7,46.7c-0.1-1.7-0.5-3.3-1.2-4.8c-1.6,0.6-3.2,1.1-4.8,1.5c0.3,1.1,0.4,2.2,0.4,3.3H181.7 L181.7,46.7z M175.8,51.3c1.6,0.4,3.2,0.8,4.8,1.4c0.7-1.5,1.1-3.1,1.2-4.8h-5.5C176.2,49.1,176,50.2,175.8,51.3 M174.6,51 c0.2-1,0.4-2,0.4-3.1h-5.4v2.6C171.3,50.6,172.9,50.7,174.6,51 M172.9,55.3c0.6-1,1-2,1.4-3.1c-1.5-0.3-3.1-0.4-4.7-0.4V55 C170.7,55,171.8,55.1,172.9,55.3 M170.8,60c2.2-0.3,4.2-1.2,5.9-2.5c-1.1-0.4-2.1-0.6-3.2-0.9C172.7,57.8,171.8,59,170.8,60 M172.2,56.4c-0.9-0.1-1.7-0.2-2.6-0.2v3.3C170.6,58.6,171.5,57.5,172.2,56.4 M164.4,56.6c-1.1,0.2-2.2,0.5-3.2,0.8 c1.7,1.3,3.7,2.2,5.9,2.5C166.1,59,165.2,57.8,164.4,56.6 M165.7,56.4c0.7,1.1,1.6,2.2,2.6,3.1v-3.3 C167.5,56.2,166.6,56.3,165.7,56.4 M163.7,52.2c0.3,1.1,0.8,2.1,1.4,3.1c1.1-0.2,2.2-0.3,3.3-0.3v-3.3 C166.8,51.8,165.2,51.9,163.7,52.2 M163.3,51c1.7-0.3,3.3-0.5,5-0.5v-2.6h-5.5C162.9,49,163.1,50,163.3,51 M156.2,47.9 c0.1,1.7,0.5,3.3,1.2,4.8c1.6-0.6,3.2-1.1,4.8-1.4c-0.3-1.1-0.4-2.2-0.4-3.3L156.2,47.9L156.2,47.9z M162.1,43.4 c-1.6-0.4-3.2-0.8-4.8-1.5c-0.7,1.5-1.1,3.1-1.2,4.8h5.5C161.7,45.6,161.9,44.5,162.1,43.4 M163.3,43.6c-0.2,1-0.4,2-0.4,3.1h5.5 v-2.6C166.7,44.1,165,43.9,163.3,43.6 M165,39.4c-0.6,1-1,2-1.4,3.1c1.5,0.3,3.1,0.4,4.7,0.5v-3.3C167.2,39.6,166.1,39.5,165,39.4 M167.1,34.7c-2.2,0.3-4.2,1.2-5.9,2.5c1.1,0.4,2.1,0.6,3.2,0.8C165.2,36.8,166.1,35.7,167.1,34.7 M165.7,38.3 c0.9,0.1,1.8,0.2,2.6,0.2v-3.3C167.3,36.1,166.5,37.1,165.7,38.3 M173.5,38c1.1-0.2,2.2-0.5,3.2-0.9c-1.7-1.3-3.7-2.2-5.9-2.5 C171.8,35.7,172.7,36.8,173.5,38 M172.2,38.3c-0.7-1.1-1.6-2.1-2.6-3.1v3.3C170.4,38.4,171.3,38.4,172.2,38.3 M174.3,42.5 c-0.3-1.1-0.8-2.1-1.4-3.1c-1.1,0.2-2.2,0.3-3.3,0.3v3.3C171.2,42.9,172.7,42.7,174.3,42.5 M169.6,46.7h5.4c0-1-0.2-2.1-0.4-3.1 c-1.6,0.3-3.3,0.5-5,0.5V46.7L169.6,46.7z M169,33.3c-7.7,0-14,6.3-14,14c0,7.7,6.3,14,14,14c7.7,0,14-6.3,14-14 C183,39.6,176.7,33.3,169,33.3 M185.4,26.3c-12.9,0.1-25.8,1.5-38.3,4.2c5.5,35.1,27.5,52.2,38.3,58.2V26.3z"></path> <g> <path class="st1" d="M212,68C212,68,212,68,212,68L212,68L212,68z"></path> <path class="st1" d="M219.7,55.3C219.7,55.3,219.7,55.2,219.7,55.3L219.7,55.3L219.7,55.3L219.7,55.3z"></path> <path class="st1" d="M187.2,0c-13.7,0-27,1.5-39.8,4.2l0,0c-0.9,0.2-1.6,1-1.6,2l0,7.2c0,4.7,0.3,9.2,0.8,13.4 c26.7-5.6,54.7-5.6,81.3,0c0.5-4.2,0.8-8.7,0.8-13.4l0-7.2c0-1-0.7-1.8-1.7-2l0,0C214.2,1.5,200.8,0,187.2,0L187.2,0z M173.8,3.8 c4.5,0.1,9.5,0.8,13.4,2.2h0c6.3-2.3,15.2-2.8,20.7-1.7l2.4,1.8l0.6,0.1c0.2,0,0.4,0.2,0.5,0.3l6.6,14.6c0.2,0.4-0.1,0.8-0.5,0.7 c-10.1-1.9-20.8-2.5-30.3-2.5h0c-9.5,0-20.2,0.6-30.3,2.5c-0.4,0.1-0.7-0.3-0.5-0.7l6.6-14.6c0.1-0.1,0.2-0.3,0.5-0.3l0.6-0.1 l2.4-1.8C168.6,4,171.1,3.8,173.8,3.8L173.8,3.8z M165.8,6.3L163.6,8l-4.5,11.8c6.1-1,19.7-2.1,26.5-2c0.3-0.1,0.6-0.3,1.1-0.3 c-8.2-2.7-17.5-3.1-24.2-1.8L165.8,6.3z M208.5,6.3l3.3,9.4c-6.7-1.3-16-0.9-24.2,1.8c0.5,0,0.8,0.2,1.1,0.3 c6.8-0.1,20.5,1,26.5,2L210.7,8L208.5,6.3z M189,26.3v8.5l7.7,5.1V26.5C194.1,26.4,191.6,26.3,189,26.3z M204.4,27v18l7.7,5.1 V27.9C209.5,27.5,206.9,27.2,204.4,27z M219.7,29v26.2l-7.7-5.1V68l0,0c2.7-3.7,5.3-7.9,7.7-12.7v-0.1l0,0 c3.4-7,6.1-15.2,7.6-24.8C224.8,29.9,222.3,29.4,219.7,29z M196.7,39.9v17.9l-7.7-5.1v35.9c2.2-1.2,4.8-2.9,7.7-5V57.8l7.7,5.1 V45C204.4,45,196.7,39.9,196.7,39.9z M204.4,62.9v14c2.6-2.6,5.2-5.5,7.7-8.9v0C212,68,204.4,62.9,204.4,62.9z"></path> </g> </g> <g> <path class="st1" d="M5.3,104.4c-0.4,0.2-0.5,1.2-0.1,1.5l1.5,0.1c3.5,0.3,4.1,1,4.1,7.6v22.4c0,3.2-0.2,12.1-1.5,14.9 c-0.4,0.8-1.1,1.5-2.4,1.5c-0.8,0-1.7-0.2-2.5-0.4c-0.8-0.2-1.5-0.4-2.2-0.4c-1.2,0-2.1,1.7-2.1,2.7c0,1.2,1.8,1.2,2.5,1.2 c5.5,0,9.7-3.8,11.7-8.5c1.1-2.7,1.4-6.8,1.4-11.5v-22c0-6.3,0.1-7.1,3.6-7.6l0.9-0.1c0.4-0.2,0.2-1.3-0.1-1.5 c-2.4,0.1-4.4,0.2-6.7,0.2C10.7,104.5,8.7,104.5,5.3,104.4z"></path> <path class="st1" d="M166.3,104.4c-0.4,0.2-0.5,1.2-0.1,1.5l1.5,0.1c3.1,0.2,3.5,1.2,3.5,7.5v21.3c0,6.2-0.1,6.8-3.4,7.4l-1,0.2 c-0.4,0.4-0.2,1.3,0.1,1.5c2.3-0.1,4.3-0.2,6.9-0.2c2.3,0,4.3,0.1,7.5,0.2c0.3-0.2,0.5-1.2,0.1-1.5l-1.7-0.2 c-3.3-0.4-3.6-1.2-3.6-7.4v-8.3c0-1.8,0.1-1.9,3-1.9h16.9c2.8,0,2.9,0.1,2.9,1.9v8.3c0,6.2,0,6.8-3.6,7.4l-1.1,0.2 c-0.4,0.4-0.2,1.3,0.1,1.5c2.6-0.1,4.7-0.2,7.1-0.2c2.3,0,4.3,0.1,7.2,0.2c0.4-0.2,0.5-1.2,0.1-1.5l-1.4-0.2 c-3.4-0.4-3.6-1.2-3.6-7.4v-21.3c0-6.2,0.1-7.1,3.6-7.5l1.2-0.1c0.4-0.2,0.2-1.3-0.1-1.5c-2.7,0.1-4.7,0.2-7,0.2 c-2.4,0-4.4-0.1-7.1-0.2c-0.4,0.2-0.5,1.2-0.1,1.5l1.1,0.1c3.5,0.4,3.6,1.2,3.6,7.5v6.8c0,1.8-0.1,1.9-2.9,1.9H179 c-2.8,0-3-0.1-3-1.9v-6.8c0-6.2,0.1-7.1,3.5-7.5l1.1-0.1c0.4-0.2,0.2-1.3-0.1-1.5c-2.5,0.1-4.6,0.2-6.9,0.2 C171.2,104.5,169.2,104.4,166.3,104.4L166.3,104.4z"></path> <path class="st1" d="M141.6,109.8c-6.5,0-10.2,3.8-10.2,8.6c0,4.1,2.9,6.9,5.4,8.6l4.7,3.1c3.6,2.3,4.1,4.8,4.1,7 c0,3-2.1,5.7-6.3,5.7c-5.8,0-7.8-4.9-8.6-7.4c-0.2-0.3-0.9-0.2-1.2,0.1c0.1,2.3,0.8,5.9,1.4,7c0.9,0.5,3.6,1.8,7.8,1.8 c6.5,0,10.6-3.7,10.6-9.2c0-4.7-3.1-7.6-6.3-9.6l-4-2.5c-1.8-1.1-4.2-3.2-4.2-6.1c0-2.3,1-5.5,5.9-5.5c4.8,0,6.1,3.2,6.8,5.6 c0.2,0.3,1,0.1,1.2-0.2c0-2.1-0.4-4.9-0.9-6.1c-0.4,0-1.1-0.1-1.7-0.3C144.9,110.1,143.1,109.8,141.6,109.8L141.6,109.8z"></path> <path class="st1" d="M366.6,109.8c-6.5,0-10.2,3.8-10.2,8.6c0,4.1,2.9,6.9,5.4,8.6l4.7,3.1c3.6,2.3,4.1,4.8,4.1,7 c0,3-2.1,5.7-6.2,5.7c-5.8,0-7.8-4.9-8.6-7.4c-0.2-0.3-0.9-0.2-1.2,0.1c0.1,2.3,0.7,5.9,1.3,7c1,0.5,3.6,1.8,7.8,1.8 c6.5,0,10.6-3.7,10.6-9.2c0-4.7-3.1-7.6-6.2-9.6l-4-2.5c-1.9-1.1-4.3-3.2-4.3-6.1c0-2.3,1.1-5.5,6-5.5c4.8,0,6.1,3.2,6.8,5.6 c0.2,0.3,1,0.1,1.2-0.2c0-2.1-0.4-4.9-0.9-6.1c-0.4,0-1.1-0.1-1.8-0.3C370,110.1,368.2,109.8,366.6,109.8L366.6,109.8z"></path> <path class="st1" d="M55.6,110.5c-0.3,0.1-0.4,1-0.1,1.2l1.3,0.1c2.6,0.2,2.9,1.1,2.9,6.3v18c0,5.2-0.1,5.7-2.9,6.2l-0.8,0.2 c-0.3,0.3-0.2,1.1,0.1,1.2c2,0,3.6-0.2,5.8-0.2c2,0,3.6,0,6.3,0.2c0.3-0.2,0.4-1,0.1-1.2l-1.4-0.2c-2.8-0.3-3-1-3-6.2v-7 c0-1.5,0.1-1.6,2.5-1.6h14.3c2.4,0,2.5,0.1,2.5,1.6v7c0,5.2,0,5.7-3,6.2l-0.9,0.2c-0.3,0.3-0.2,1.1,0.1,1.2c2.2-0.1,4-0.2,6-0.2 c1.9,0,3.6,0,6,0.2c0.3-0.2,0.4-1,0.1-1.2l-1.2-0.2c-2.9-0.3-3-1-3-6.2v-18c0-5.2,0.1-6,3-6.3l1.1-0.1c0.3-0.2,0.2-1.1-0.1-1.2 c-2.3,0.1-4,0.1-5.9,0.1c-2.1,0-3.8,0-6-0.1c-0.3,0.1-0.4,1-0.1,1.2l0.9,0.1c2.9,0.3,3,1.1,3,6.3v5.7c0,1.5-0.1,1.6-2.5,1.6H66.4 c-2.4,0-2.5-0.1-2.5-1.6v-5.7c0-5.2,0.1-6,3-6.3l1-0.1c0.3-0.2,0.2-1.1-0.1-1.2c-2.2,0.1-3.8,0.1-5.8,0.1 C59.8,110.6,58.1,110.5,55.6,110.5z"></path> <path class="st1" d="M93.6,110.5c-0.4,0.2-0.4,1-0.1,1.3l0.8,0.1c1.2,0.2,2.4,0.5,3.1,1.2c1,1.1,1.1,2.2,1.1,3.6v14.4 c0,2.4,0,8.5-0.6,10.3c-0.2,0.6-1,0.8-2.2,1l-1.3,0.2c-0.3,0.3-0.3,1,0.1,1.2c1.8-0.1,3.1-0.2,5.2-0.2c1.9,0,3.6,0.1,5.8,0.2 c0.3-0.2,0.4-0.8,0.1-1.2l-1.5-0.2c-1.3-0.1-2.3-0.4-2.5-1c-0.8-1.5-0.9-8-0.9-10.3v-10.9c0-1.5,0-2.6,0.2-3.2h0.1 c1,1.1,4.4,5.2,5.8,6.7l11.6,13.2c4.4,4.9,5.8,6.7,6.4,7.5c0.5,0,0.8-0.3,0.9-0.5c-0.1-1.3-0.1-7.2-0.1-8.7v-11.9 c0-2.3-0.1-8.5,0.7-10.3c0.2-0.4,1.2-0.8,2.8-1l0.7-0.1c0.3-0.3,0.3-1-0.1-1.3c-1.7,0.1-3,0.1-5.1,0.1c-1.9,0-3.6,0-5.9-0.1 c-0.4,0.1-0.4,1-0.1,1.3l0.8,0.1c2,0.3,2.8,0.5,3.1,1c0.9,1.5,1,8,1,10.3v10.7c0,1,0,1.8-0.2,2.1h-0.1c-2.3-2.4-4.8-5.2-8.2-9 l-4.8-5.4c-1.6-1.8-7.5-8.4-8.5-11c-0.6,0.1-1.5,0.1-2.3,0.1C98.4,110.6,95.7,110.6,93.6,110.5L93.6,110.5z"></path> <path class="st1" d="M254.2,110.5c-4.2,0-7.2,0.1-9.9,0.4c-0.4,0.2-0.4,1-0.1,1.3l1.8,0.2c2.2,0.2,2.3,1.1,2.3,5.3v18.4 c0,5.2-0.1,5.8-3,6.2l-1,0.2c-0.3,0.3-0.2,1.1,0.1,1.2c2.2-0.1,4-0.2,6.1-0.2c2,0,3.6,0,6.5,0.2c0.3-0.2,0.4-1,0.1-1.2l-1.4-0.2 c-3.2-0.3-3.3-1-3.3-6.2v-22.3c0-1.6,0-1.8,2.7-1.8c5.2,0,8,3.1,8,8c0,4.3-2,7.4-7.3,8.4c-0.3,0.1-0.3,0.8,0,1 c2.1,0,4.7-0.4,6.9-1.5c2.2-1,5-3.3,5-7.9c0-3.4-1.7-6-4-7.5C261.4,111,258.3,110.5,254.2,110.5L254.2,110.5z"></path> <path class="st1" d="M303.3,110.5c-0.3,0.1-0.4,1.1-0.1,1.3l1.2,0.1c2.9,0.2,3,1.1,3,6.4V136c0,5.3-0.1,6-3,6.3l-1.2,0.1 c-0.3,0.3-0.2,1.1,0.1,1.2c2.5-0.1,4.2-0.2,6.3-0.2c2,0,3.7,0,6.2,0.2c0.3-0.2,0.4-1,0.1-1.2l-1.2-0.1c-2.9-0.3-3.1-1.1-3.1-6.3 v-17.8c0-5.3,0.1-6.1,3.1-6.4l1.2-0.1c0.3-0.2,0.2-1.1-0.1-1.3c-2.5,0.1-4.2,0.2-6.2,0.2C307.5,110.6,305.8,110.6,303.3,110.5z"></path> <path class="st1" d="M318.8,110.5c-0.4,0.2-0.4,1-0.1,1.3l0.8,0.1c1.2,0.2,2.4,0.5,3.1,1.2c1.1,1.1,1.1,2.2,1.1,3.6v14.4 c0,2.4,0.1,8.5-0.6,10.3c-0.2,0.6-1,0.8-2.2,1l-1.4,0.2c-0.3,0.3-0.2,1,0.1,1.2c1.8-0.1,3.1-0.2,5.2-0.2c1.8,0,3.6,0.1,5.8,0.2 c0.3-0.2,0.4-0.8,0.1-1.2l-1.6-0.2c-1.2-0.1-2.2-0.4-2.5-1c-0.8-1.5-0.9-8-0.9-10.3v-10.9c0-1.5,0-2.6,0.3-3.2h0.1 c1,1.1,4.5,5.2,5.8,6.7l11.6,13.2c4.3,4.9,5.8,6.7,6.4,7.5c0.5,0,0.8-0.3,0.9-0.5c-0.1-1.3-0.1-7.2-0.1-8.7v-11.9 c0-2.3-0.1-8.5,0.7-10.3c0.2-0.4,1.2-0.8,2.8-1l0.7-0.1c0.3-0.3,0.3-1-0.1-1.3c-1.7,0.1-3,0.1-5.1,0.1c-1.9,0-3.6,0-5.9-0.1 c-0.4,0.1-0.4,1-0.1,1.3l0.8,0.1c2,0.3,2.8,0.5,3.1,1c0.9,1.5,1,8,1,10.3v10.7c0,1,0,1.8-0.2,2.1h-0.1c-2.3-2.4-4.8-5.2-8.2-9 l-4.8-5.4c-1.6-1.8-7.5-8.4-8.5-11c-0.6,0.1-1.5,0.1-2.3,0.1C323.5,110.6,320.9,110.6,318.8,110.5L318.8,110.5z"></path> <path class="st1" d="M269.1,110.5c-0.3,0.1-0.4,1-0.1,1.2l1.3,0.1c2.9,0.2,3,1,3,6.3v18c0,5.2-0.1,5.8-2.7,6.2l-1,0.2 c-0.3,0.3-0.2,1.1,0.1,1.2c2-0.1,3.7-0.2,5.8-0.2c2,0,3.7,0,6.1,0.2c0.3-0.2,0.4-1,0.1-1.2l-1.3-0.2c-2.8-0.3-2.9-1-2.9-6.2v-6.4 c0-1.7,0.1-2.4,0.8-2.4c1.2,0,2,1,4.8,4.2l4,4.5c1.9,2.1,3.2,3.5,4.1,4.7c0.3,0.4,0.7,0.8,0.7,1.2c0,0.2-0.5,0.4-1.2,0.5l-1.1,0.2 c-0.3,0.3-0.1,1.1,0.2,1.2c2.3-0.1,4-0.2,6.1-0.2c2.3,0,4.3,0,5.6,0.2c0.3-0.2,0.4-1,0.1-1.2l-1.3-0.2c-1.7-0.2-2.8-0.8-4-2 c-3.9-4.1-7.7-8.6-12.5-14c-0.6-0.8-0.9-1.2-0.9-1.5c0-0.4,0.4-0.8,1.1-1.5l4.5-4.2c2.8-2.6,5.6-5,7-5.8c1.4-0.8,3.3-1.3,4.6-1.4 c0.3-0.3,0.2-1-0.1-1.2c-1.5,0.1-3.2,0.1-4.9,0.1c-1.8,0-3.7,0-5.5-0.1c-0.4,0.2-0.4,0.9-0.1,1.2l1.3,0.3c0.7,0.2,0.9,0.3,0.9,0.5 s-0.1,0.4-0.4,0.8c-0.5,0.7-2.9,3.2-3.9,4.1l-5.4,5.3c-0.6,0.5-1.9,1.8-2.5,2.4c-0.3,0.3-1,0.6-1.4,0.6c-0.5,0-0.6-1-0.6-1.9v-5.7 c0-5.2,0.1-6,3-6.3l0.9-0.1c0.3-0.2,0.2-1.1-0.1-1.2c-2.1,0.1-3.8,0.1-5.8,0.1C273.1,110.6,271.5,110.6,269.1,110.5L269.1,110.5z"></path> <path class="st1" d="M37.7,109.8c-10.3,0-17.8,7.6-17.8,17.6c0,9,6.7,16.9,17.8,16.9c9.6,0,17.3-7.3,17.3-17.4 C55,118.2,49.2,109.8,37.7,109.8z M38.4,142.8c-9.8,0-13.4-9.6-13.4-17c0-10.9,6.7-14.5,11.9-14.5c9.5,0,13.2,8.9,13.2,17.1 C50,138.3,44.3,142.8,38.4,142.8z"></path> <polygon class="st1" points="226.1,109.8 226.1,109.8 226.1,109.8 "></polygon> <path class="st1" d="M226.1,109.8c-10.3,0-17.8,7.6-17.8,17.6c0,9,6.7,16.9,17.8,16.9c9.6,0,17.3-7.3,17.3-17.4 C243.4,118.2,237.6,109.8,226.1,109.8z M226.7,142.8c-9.8,0-13.4-9.6-13.4-17c0-10.9,6.8-14.5,11.9-14.5c9.5,0,13.2,8.9,13.2,17.1 C238.4,138.3,232.7,142.8,226.7,142.8z"></path> <path class="st1" d="M276.1,159c-0.1,0-0.2,0-0.2,0c-0.2,1-0.6,2.7-1,3.8c0.1,0.2,0.5,0.3,0.7,0.2c0.3-0.6,0.5-1.2,1.2-1.8 c0.6-0.6,2.1-0.6,3.2-0.6h1.4c0.8,0,0.8,0,0.8,0.8V173c0,2.7-0.1,3.1-1.6,3.2l-0.9,0.1c-0.2,0.1-0.2,0.6,0,0.6 c1.7,0,2.5-0.1,3.6-0.1s1.9,0,3.4,0.1c0.1-0.1,0.2-0.5,0-0.6l-0.8-0.1c-1.5-0.1-1.5-0.5-1.5-3.2v-11.5c0-0.9,0-0.9,0.7-0.9h1.8 c1.4,0,2.4,0.2,3,0.6c0.4,0.3,0.6,1.2,0.6,1.9c0.1,0.2,0.6,0.2,0.7,0c-0.1-0.8,0.1-2.9,0.4-3.9c0-0.1-0.3-0.1-0.5-0.1 c-0.4,0.7-0.6,0.7-2,0.7h-10.4c-1.2,0-2,0-2.2-0.8C276.3,159,276.2,159,276.1,159z"></path> <path class="st1" d="M234,159.4c-3.4,0-5.3,2-5.3,4.4c0,2.1,1.5,3.6,2.8,4.4l2.4,1.6c1.9,1.2,2.1,2.5,2.1,3.6c0,1.5-1.1,3-3.2,3 c-3,0-4.1-2.5-4.4-3.8c-0.1-0.2-0.5-0.1-0.6,0.1c0,1.2,0.4,3,0.7,3.6c0.5,0.3,1.9,1,4,1c3.3,0,5.5-1.9,5.5-4.8 c0-2.4-1.6-3.9-3.2-4.9l-2.1-1.3c-1-0.6-2.2-1.7-2.2-3.2c0-1.2,0.5-2.9,3.1-2.9c2.5,0,3.2,1.7,3.5,2.9c0.1,0.2,0.5,0.1,0.6-0.1 c0-1.1-0.2-2.5-0.5-3.2c-0.2,0-0.6,0-0.9-0.2C235.7,159.6,234.8,159.4,234,159.4L234,159.4z"></path> <path class="st1" d="M54,159.7c-0.1,0.1-0.2,0.5,0,0.6l0.6,0c1.5,0.1,1.5,0.6,1.5,3.2v6.1c0,3.1,0.6,4.9,2,6.1 c1.3,1.1,3,1.4,4.8,1.4c1.9,0,3.8-0.7,4.9-1.9c1.4-1.5,1.8-3.9,1.8-6.2v-2.9c0-1.4,0-4.4,0.4-5.3c0.1-0.3,0.6-0.6,1.3-0.6l0.6,0 c0.1-0.2,0.1-0.5-0.1-0.6c-0.9,0.1-1.6,0.1-2.7,0.1c-1,0-2,0-2.9-0.1c-0.1,0.1-0.2,0.4,0,0.6l0.6,0c0.6,0.1,1.1,0.2,1.3,0.5 c0.4,0.8,0.5,3.7,0.5,5.3v3c0,3.9-1.4,6.9-5.2,6.9c-3.9,0-5.2-2.7-5.2-6.9v-5.6c0-2.7,0-3.1,1.5-3.2l0.6,0 c0.1-0.1,0.1-0.5-0.1-0.6c-1.3,0.1-2.1,0.1-3.2,0.1C56.1,159.8,55.3,159.8,54,159.7L54,159.7z"></path> <path class="st1" d="M85.8,159.7c-0.2,0.1-0.2,0.5,0,0.6l0.4,0.1c0.6,0.1,1.2,0.3,1.6,0.6c0.5,0.6,0.6,1.1,0.6,1.9v7.4 c0,1.2,0,4.4-0.3,5.3c-0.1,0.3-0.5,0.4-1.1,0.5l-0.7,0.1c-0.2,0.2-0.1,0.5,0,0.6c0.9,0,1.6-0.1,2.7-0.1c1,0,1.9,0,3,0.1 c0.2-0.1,0.2-0.4,0-0.6l-0.8-0.1c-0.6,0-1.2-0.2-1.3-0.5c-0.4-0.8-0.5-4.1-0.5-5.3v-5.6c0-0.8,0-1.4,0.1-1.7h0 c0.5,0.6,2.3,2.7,3,3.5l6,6.8c2.2,2.6,3,3.5,3.3,3.9c0.3,0,0.4-0.1,0.5-0.3c-0.1-0.7-0.1-3.7-0.1-4.5v-6.2c0-1.2,0-4.4,0.4-5.3 c0.1-0.2,0.6-0.4,1.4-0.5l0.4-0.1c0.1-0.2,0.1-0.5,0-0.6c-0.9,0.1-1.6,0.1-2.7,0.1c-1,0-1.9,0-3-0.1c-0.2,0.1-0.2,0.5,0,0.6 l0.4,0.1c1,0.1,1.4,0.3,1.6,0.5c0.5,0.8,0.5,4.1,0.5,5.3v5.5c0,0.5,0,1-0.1,1.1h-0.1c-1.2-1.2-2.5-2.7-4.3-4.7l-2.5-2.8 c-0.8-1-3.9-4.4-4.4-5.7c-0.3,0.1-0.8,0.1-1.2,0.1C88.3,159.8,86.9,159.8,85.8,159.7z"></path> <path class="st1" d="M119.3,159.7c-0.1,0.1-0.2,0.5,0,0.6l0.6,0.1c1.5,0.1,1.6,0.6,1.6,3.3v9.2c0,2.7,0,3.1-1.6,3.3l-0.6,0.1 c-0.2,0.2-0.1,0.6,0,0.6c1.3,0,2.2-0.1,3.2-0.1c1,0,1.9,0,3.2,0.1c0.2-0.1,0.2-0.5,0-0.6l-0.6-0.1c-1.5-0.2-1.6-0.5-1.6-3.3v-9.2 c0-2.7,0-3.2,1.6-3.3l0.6-0.1c0.2-0.1,0.1-0.6,0-0.6c-1.3,0.1-2.2,0.1-3.2,0.1C121.5,159.8,120.6,159.8,119.3,159.7z"></path> <path class="st1" d="M139.9,159.7c-0.2,0.1-0.2,0.5-0.1,0.6l0.5,0.1c1.1,0.1,1.5,0.7,2.1,2.1l4.5,11.2c0.4,1.1,0.9,2.3,1.2,3.4 c0.1,0,0.3,0.1,0.4,0.1c0.1,0,0.2,0,0.3-0.1c0.4-1.4,1.6-4.4,2.7-6.7l1.4-3.2c1.2-2.6,2.2-4.7,2.9-5.9c0.3-0.5,0.7-0.9,1.3-0.9 l0.8-0.1c0.1-0.1,0.1-0.5-0.1-0.6c-0.8,0.1-1.6,0.1-2.5,0.1c-1,0-2,0-2.7-0.1c-0.2,0.1-0.2,0.5,0,0.6l0.5,0.1 c0.9,0.1,1.2,0.3,1.2,0.5c0,0.2,0,0.5-0.2,1c-0.4,1.1-1.6,4-2.4,5.8c-0.6,1.4-1.7,4-2.5,5.7c-1.3-2.9-2.5-5.9-3.7-8.9 c-0.8-2-1.2-3.4-1.3-3.6c0-0.2,0.2-0.4,1.2-0.5l0.4-0.1c0.2-0.2,0.1-0.5,0-0.6c-1.1,0.1-2,0.1-3.1,0.1 C141.5,159.8,140.6,159.8,139.9,159.7z"></path> <path class="st1" d="M171.5,159.7c-0.2,0.1-0.2,0.5-0.1,0.6l0.4,0.1c1.5,0.2,1.6,0.6,1.6,3.2v9.3c0,2.7-0.1,3.1-1.6,3.2l-0.8,0.1 c-0.1,0.2-0.1,0.6,0,0.6c1.5,0,2.4-0.1,3.5-0.1h2.3c2.3,0,4.6,0,6.9,0.1c0.3-0.7,1-2.7,1.2-3.6c-0.1-0.2-0.5-0.3-0.6-0.2 c-0.7,1.3-1.4,2.2-1.8,2.5c-0.6,0.3-1.3,0.4-3.3,0.4c-2.3,0-2.8-0.3-3.1-0.6c-0.4-0.4-0.5-1.3-0.5-2.7v-3.6c0-0.7,0.1-0.7,0.8-0.7 h1.5c1,0,1.6,0,2,0.1c0.5,0.1,0.7,0.5,0.8,1l0.2,1c0.1,0.2,0.6,0.2,0.7,0c0-0.6-0.1-1.5-0.1-2.5c0-1,0.1-2,0.1-2.6 c-0.1-0.2-0.5-0.2-0.7,0l-0.2,1.1c-0.1,0.6-0.3,0.8-0.6,0.9c-0.3,0.1-1.1,0.2-2.2,0.2h-1.5c-0.8,0-0.8,0-0.8-0.7v-5.2 c0-1,0-1,0.8-1h1.9c1.1,0,2,0,2.5,0.2c1.4,0.3,1.6,1.2,2,2.5c0.1,0.2,0.5,0.1,0.6,0c-0.1-1.1-0.3-3-0.4-3.4 c-0.3,0.1-1.8,0.1-3.5,0.1h-4.8C173.5,159.8,172.6,159.8,171.5,159.7L171.5,159.7z"></path> <path class="st1" d="M253.4,159.7c-0.2,0.1-0.2,0.5,0,0.6l0.6,0.1c1.5,0.1,1.6,0.6,1.6,3.3v9.2c0,2.7,0,3.1-1.6,3.3l-0.6,0.1 c-0.2,0.2-0.1,0.6,0,0.6c1.3,0,2.2-0.1,3.2-0.1c1,0,1.9,0,3.2,0.1c0.2-0.1,0.2-0.5,0-0.6l-0.6-0.1c-1.5-0.2-1.6-0.5-1.6-3.3v-9.2 c0-2.7,0-3.2,1.6-3.3l0.6-0.1c0.2-0.1,0.1-0.6,0-0.6c-1.3,0.1-2.2,0.1-3.2,0.1C255.5,159.8,254.6,159.8,253.4,159.7z"></path> <path class="st1" d="M304.8,159.7c-0.2,0.1-0.2,0.5-0.1,0.6l0.7,0.1c0.8,0.1,1.2,0.3,2.1,2l3,5.9c0.7,1.4,0.8,1.8,0.8,3.2v1.3 c0,2.8,0,3.1-1.5,3.3l-0.8,0.1c-0.2,0.2-0.1,0.6,0,0.6c1.4-0.1,2.3-0.1,3.4-0.1c1,0,1.9,0,3.5,0.1c0.1-0.1,0.2-0.5,0-0.6l-1-0.1 c-1.4-0.1-1.6-0.5-1.6-3.3v-1.3c0-2,0.1-2.2,1.2-4.2l1.6-2.8c1.3-2.2,2.1-3.8,3.4-4.1l0.7-0.1c0.2-0.2,0.1-0.5-0.1-0.6 c-0.9,0.1-1.6,0.1-2.4,0.1c-0.8,0-1.5,0-2.5-0.1c-0.2,0.1-0.2,0.5,0,0.6l0.5,0.1c0.6,0.1,1.1,0.3,1.1,0.4c0,0.3-1,2.1-1.7,3.4 c-0.8,1.5-1.6,3-2.4,4.4c-1-1.8-2-3.8-2.9-5.7c-0.1-0.3-0.8-1.7-0.8-2c0-0.2,0.2-0.3,1.1-0.5l0.3-0.1c0.2-0.2,0.2-0.6-0.1-0.6 c-0.6,0.1-1.6,0.1-2.7,0.1C306.6,159.8,305.7,159.8,304.8,159.7L304.8,159.7z"></path> <path class="st1" d="M215.5,176.6c-0.7,0-1.3-0.3-1.8-0.7c-1.8-1.5-3.1-3.5-5.2-6.9c-0.1-0.2-0.3-0.5-0.1-0.6 c1.3-0.5,3.2-1.9,3.2-4.3c0-1.8-0.9-3-2.2-3.6c-1.2-0.6-2.7-0.8-4.3-0.8c-2.5,0-4.3,0.1-5.7,0.2c-0.2,0.1-0.2,0.5,0,0.6l0.8,0.1 c1.1,0.1,1.1,0.6,1.1,3v9.3c0,2.7,0,3-1.5,3.2l-0.6,0.1c-0.2,0.2-0.1,0.6,0,0.6c1.2,0,2.1-0.1,3.2-0.1c1,0,1.9,0,3.1,0.1 c0.2-0.1,0.2-0.5,0-0.6l-0.5-0.1c-1.5-0.2-1.6-0.5-1.6-3.2v-3.2c0-0.5,0-0.6,1.2-0.6c1,0,1.4,0.3,1.8,0.8c0.8,1.2,1.9,2.9,2.5,3.9 c1.8,2.6,3.1,3.2,5.3,3.2c0.5,0,0.9-0.1,1.1-0.1C215.6,176.9,215.6,176.7,215.5,176.6z M208,167.7c-0.7,0.6-1.7,0.7-2.6,0.7 c-1.3,0-1.7,0-1.8-0.1c-0.1-0.1-0.1-0.4-0.1-0.9v-6c0-0.7,0.1-0.8,1.7-0.8c2.9,0,4.1,1.9,4.1,4C209.3,166.3,208.7,167.2,208,167.7 z"></path> </g> </g> </svg> 