<?xml version="1.0" encoding="UTF-8"?> <!-- Generator: Adobe Illustrator 26.0.2, SVG Export Plug-In . SVG Version: 6.00 Build 0) --> <svg xmlns="http://www.w3.org/2000/svg" xmlns:xlink="http://www.w3.org/1999/xlink" version="1.1" id="Layer_1" x="0px" y="0px" width="286px" height="119.9px" viewBox="0 0 286 119.9" style="enable-background:new 0 0 286 119.9;" xml:space="preserve"> <style type="text/css"> .st0{fill:#009ADE;} </style> <g> <path class="st0" d="M264.3,66c-0.5-10.1-8.4-16.2-17.7-16.2h-1.4c-9.3,0-17.2,6.1-17.7,16.2H264.3z M205.8,76 c0-25.3,15.1-43.9,41-43.9S286,50.5,286,75c0,2.5-0.2,5.2-0.3,7.9h-58.2c0.9,11.6,10.2,19.2,19.4,19.2h1.4 c8.4,0,13.6-4.9,15.1-10.6h22.2c-4.1,16.5-17.4,28.4-38.9,28.4S205.8,103.8,205.8,76"></path> <path class="st0" d="M48.4,32.1c-11.2,0-20.8,5.6-26,14V0h0H0c0,1.9,0,33,0,34.7C0,55.3,0,75.9,0,96.5c0,12,10.5,22.2,22.3,21.7v0 h0V71.2c0-11.8,8.3-21.4,18.6-21.4h1.4c8.6,0,13.6,5.9,13.6,16.9v51.5h22.4v-54C78.3,45.6,69,32.1,48.4,32.1"></path> <path class="st0" d="M196.8,118.2c-11.8,0.5-22.3-9.7-22.3-21.7c-0.1-20.6,0-41.2,0-61.8c0-1.7,0-32.8,0-34.7h22.3V118.2z"></path> <path class="st0" d="M162.3,118.2V99.6v-3.3V62.5c0-19.8-14.6-30.4-36.1-30.4s-35.3,12-37,27.9h22.4c0.5-4.9,5.5-10.1,13.9-10.1 h1.4c8.4,0,13.8,5.9,13.8,13.5v2L119,67.2c-17,1.4-31.5,9.6-31.5,27.9c0,15.2,12.7,24.8,28.2,24.8c11.2,0,20.3-4.7,25.5-12 c0.2,3.9,0,10.3,0,10.3H162.3z M140.7,83.7c0,11-9.1,18.4-19.1,18.4h-1.4c-6,0-10.7-3.4-10.7-8.6c0-6.9,6.9-9.8,12.6-10.3l18.6-1.9 V83.7z"></path> </g> </svg> 