<?xml version="1.0" encoding="UTF-8"?> <!-- Generator: Adobe Illustrator 25.4.1, SVG Export Plug-In . SVG Version: 6.00 Build 0) --> <svg xmlns="http://www.w3.org/2000/svg" xmlns:xlink="http://www.w3.org/1999/xlink" version="1.1" id="Layer_1" x="0px" y="0px" width="100px" height="100px" viewBox="0 0 100 100" style="enable-background:new 0 0 100 100;" xml:space="preserve"> <style type="text/css"> .st0{fill:none;stroke:#000000;stroke-width:1.9149;stroke-miterlimit:10;} </style> <g> <circle class="st0" cx="50" cy="50" r="47.9"></circle> <g> <g> <path d="M23.1,64.1V35.3H38V41h-8.1v5.1h7.4v5.8h-7.4v12.2H23.1z"></path> <path d="M39.1,64.1V35.3h7.4c1.2,0,2.5,0.1,3.9,0.2c1.4,0.1,2.6,0.5,3.7,1.2c0.6,0.4,1.2,0.8,1.6,1.4c0.4,0.5,0.7,1.1,0.9,1.7 c0.2,0.6,0.3,1.3,0.4,2c0.1,0.7,0.1,1.4,0.1,2.1v12.8c0,1.5-0.3,2.7-0.7,3.8c-0.5,1-1.2,1.9-2.2,2.5c-0.9,0.6-1.9,1-2.9,1.1 c-1,0.2-2.1,0.2-3.1,0.2H39.1z M45.9,58.9c1.1,0.1,2,0,2.6-0.2c0.6-0.2,1.1-0.5,1.3-1c0.3-0.4,0.4-1,0.5-1.7c0-0.7,0-1.5,0-2.5 v-9.4c0-0.8-0.1-1.5-0.3-2c-0.2-0.5-0.4-0.8-0.8-1.1c-0.3-0.2-0.8-0.4-1.4-0.5c-0.6-0.1-1.3-0.1-2.1-0.1V58.9z"></path> <path d="M56.7,64.1l6.3-28.9h8.2l6.3,28.9h-6.9l-1-5.6h-5.3l-0.8,5.6H56.7z M67.1,40.5L67.1,40.5l-2,12.9H69L67.1,40.5z"></path> </g> </g> <g> <g> <path d="M8.6,49.9l8.8-0.3l0.1,1.7c0,1-0.3,1.7-1.4,1.7l-1.2,0c-0.7,0-1.2-0.1-1.4-1.2l0,0c-0.1,0.6-0.2,1.2-1,1.3 c-1.2,0.1-2.4,0.1-3.6,0.3l0-1.3c1-0.3,2.3-0.2,3.3-0.3c0.5,0,0.7-0.2,0.7-0.8l-4.1,0.2L8.6,49.9z M13.8,51l0,0.2 c0,0.5,0.3,0.5,0.6,0.5l1.6-0.1c0.3,0,0.4-0.2,0.4-0.5l0-0.3L13.8,51z"></path> <path d="M8.9,54.8l8.7-1.3l0.4,2.9l-1.1,0.2l-0.2-1.6l-2.2,0.3l0.2,1.5L13.5,57l-0.2-1.5l-3,0.4l0.2,1.6l-1.1,0.2L8.9,54.8z"></path> <path d="M14.6,61.1l-4.2,1.1l-0.2-0.6l0.5-0.2l0,0c-0.5-0.1-0.9-0.5-1-1c-0.2-0.6-0.1-1.5,1-1.8l6-1.6c1.1-0.3,1.7,0.5,1.9,1.3 c0.2,0.8,0.1,1.7-1,2l-1.8,0.5l-0.3-1.3l1.7-0.4c0.4-0.1,0.5-0.3,0.4-0.5c-0.1-0.3-0.2-0.4-0.6-0.3l-5.7,1.5 c-0.4,0.1-0.5,0.3-0.4,0.5c0.1,0.2,0.2,0.4,0.6,0.2l1.8-0.5l-0.1-0.5l1-0.3L14.6,61.1z"></path> <path d="M10.8,63.4l8.2-3l0.4,1.2l-8.2,3L10.8,63.4z"></path> <path d="M13.6,66.4c-0.4,0.2-0.4,0.4-0.3,0.6c0.1,0.2,0.3,0.3,0.7,0.1l0.8-0.4c1.1-0.5,1.3-2.9,2.6-3.5l1.1-0.5 c1-0.5,1.7,0.2,2.1,0.9c0.3,0.7,0.4,1.7-0.6,2.2l-1.7,0.8l-0.5-1.2l1.6-0.7c0.4-0.2,0.4-0.4,0.3-0.6c-0.1-0.2-0.3-0.3-0.7-0.1 l-1,0.5c-0.6,0.3-1.4,3-2.2,3.3l-1.4,0.7c-1,0.5-1.7-0.2-2.1-0.9c-0.3-0.7-0.4-1.7,0.6-2.2l1.8-0.8l0.5,1.2L13.6,66.4z"></path> <path d="M23.1,68.6l-1,0.6l-0.6-1l-6.5,4l-0.7-1.1l6.5-4l-0.6-1l1-0.6L23.1,68.6z"></path> <path d="M16.4,74.2l6.9-5.4l1.8,2.3l-0.9,0.7l-1-1.3L21.5,72l0.9,1.2l-0.9,0.7l-0.9-1.2l-2.4,1.9l1,1.3l-0.9,0.7L16.4,74.2z"></path> <path d="M19,77.5l6.3-6.1l1.2,1.2c0.7,0.8,0.9,1.5,0.1,2.3l-0.9,0.9c-0.5,0.5-1,0.7-1.8,0l0,0c0.3,0.5,0.6,1,0.1,1.6 c-0.8,0.9-1.7,1.7-2.5,2.7l-0.9-0.9c0.6-0.9,1.6-1.7,2.3-2.4c0.4-0.4,0.4-0.7,0-1.1l-2.9,2.8L19,77.5z M23.6,74.9l0.2,0.2 c0.3,0.3,0.6,0.2,0.8,0l1.1-1.1c0.2-0.2,0.2-0.4,0-0.7l-0.2-0.2L23.6,74.9z"></path> <path d="M22.5,81l5.6-6.7l2.2,1.9L29.6,77l-1.2-1l-1.4,1.7l1.2,1l-0.7,0.9l-1.2-1l-2,2.4l1.2,1l-0.7,0.9L22.5,81z"></path> <path d="M30.6,76.3l1.3,0.9c1.1,0.7,1.3,1.4,0.4,2.7l-2.9,4.3c-0.5,0.7-1.3,1-2.2,0.5l-1.5-1L30.6,76.3z M27.4,83.4l0.3,0.2 c0.3,0.2,0.5,0.2,0.8-0.3l3-4.5c0.3-0.5,0.2-0.6-0.1-0.8l-0.3-0.2L27.4,83.4z"></path> <path d="M38,84.8l-1.2,2.9c-0.1,0.2-0.2,0.4-0.4,0.5l0.4,0.2l-0.3,0.9l-0.7-0.3c-0.2-0.1-0.3-0.2-0.4-0.3c-0.4,0.1-0.9,0-1.2-0.1 c-0.9-0.4-1.4-1.4-1-2.3l0.7-1.6c0.2-0.6,0.6-1.2,1.4-1.3c-0.2-0.7,0-1.4,0.3-2c0.5-1.1,1-1.7,2.3-1.1c1.1,0.5,1.1,1.1,0.7,2.2 c-0.4,0.9-0.9,1.4-2.1,1.7c0,0.8-0.1,1.7-0.2,2.5l0,0l0.9-2.1L38,84.8z M34.3,86.6c-0.3,0.6,0,0.9,0.4,1c0.2,0.1,0.3,0.1,0.4,0 c-0.1-1-0.1-2,0.1-3l0,0L34.3,86.6z M37.5,81.3c0.1-0.2,0-0.4-0.2-0.5c-0.3-0.1-0.4-0.1-0.5,0.3l-0.5,1.1c-0.1,0.2-0.1,0.5,0,0.7 c0.3,0,0.7-0.1,0.8-0.5L37.5,81.3z"></path> <path d="M40.4,90.3l1.9-8.6l1.3,0.3l-1.9,8.6L40.4,90.3z"></path> <path d="M46,82.4l0.1,2.5c0.1,1.6,0.1,3.3,0,5l0,0l0.1-0.5c0.1-0.8,0.2-1.7,0.3-2.5l0.5-4.4l1.1,0.1l-1.1,8.7L45,91.1l-0.1-4.4 c-0.1-1.1,0-2.1,0-3.1l0,0c0,0.4-0.1,0.8-0.1,1.1L44,91l-1.1-0.1l1.1-8.7L46,82.4z"></path> <path d="M49.7,90c0,0.4,0.1,0.5,0.4,0.5c0.3,0,0.4-0.1,0.4-0.5l0-0.9c0-1.2-2.1-2.4-2.2-3.8l0-1.3c0-1.1,0.9-1.5,1.7-1.5 c0.8,0,1.7,0.3,1.7,1.4l0,1.8l-1.3,0l0-1.7c0-0.4-0.1-0.5-0.4-0.5c-0.3,0-0.4,0.1-0.4,0.5l0,1.1c0,0.6,2.1,2.5,2.2,3.4l0,1.6 c0,1.1-0.9,1.5-1.7,1.5c-0.8,0-1.7-0.3-1.7-1.4l0-2l1.3,0L49.7,90z"></path> <path d="M56,85.8c0.1,1.2-0.3,1.8-1.3,2l-0.5,0.1l0.4,3.3l-1.3,0.2l-1-8.7l1.4-0.2c1.3-0.2,2.1,0.2,2.2,1.5L56,85.8z M54,86.8 c0.4,0,0.8-0.1,0.7-0.5l-0.2-2.1c-0.1-0.6-0.2-0.8-0.7-0.8l-0.2,0L54,86.8z"></path> <path d="M58,90.6l-2-8.5l2.8-0.6l0.3,1.1l-1.6,0.4l0.5,2.2l1.5-0.3l0.3,1.1l-1.5,0.3l0.7,3l1.6-0.4l0.3,1.1L58,90.6z"></path> <path d="M62.2,83.7L61.6,82c-0.1-0.4-0.3-0.5-0.6-0.4c-0.3,0.1-0.4,0.2-0.2,0.6l2,5.6c0.1,0.4,0.3,0.5,0.6,0.4 c0.2-0.1,0.3-0.2,0.2-0.6L63,85.8l1.2-0.4l0.7,1.9c0.4,1.1-0.4,1.7-1.1,2c-0.8,0.3-1.7,0.2-2.1-0.8l-2-5.8 c-0.4-1.1,0.4-1.7,1.1-2c0.8-0.3,1.7-0.3,2.1,0.8l0.6,1.8L62.2,83.7z"></path> <path d="M65.9,78.6l0.5,1l-1,0.5l3.3,6.8l-1.2,0.6l-3.3-6.8l-1,0.5l-0.5-1L65.9,78.6z"></path> <path d="M70.9,85.8l-4.7-7.4l2.5-1.5l0.6,1l-1.4,0.9l1.2,1.9l1.3-0.8l0.6,1l-1.3,0.8l1.6,2.6l1.4-0.9l0.6,1L70.9,85.8z"></path> <path d="M68.9,76.6l1.2-1c1-0.8,1.7-0.8,2.7,0.4l3.2,4.1c0.5,0.7,0.6,1.6-0.2,2.2l-1.5,1.2L68.9,76.6z M74.8,81.9l0.2-0.2 c0.3-0.2,0.3-0.4,0-0.8l-3.3-4.2c-0.4-0.4-0.5-0.4-0.8-0.2l-0.2,0.2L74.8,81.9z"></path> <path d="M80.2,78.4l-6.6-5.8l1.9-2.2l0.9,0.8l-1.1,1.2l1.7,1.5l1-1.2l0.9,0.8l-1,1.2l3.2,2.8L80.2,78.4z"></path> <path d="M76.1,69.6l1.1-1.6l7.7,4.3l-0.8,1.1l-2.1-1.2L81.5,73l1.8,1.6l-0.7,1L76.1,69.6z M81.1,71.6l-3.1-1.9l0,0.1l2.8,2.4 L81.1,71.6z"></path> <path d="M81.7,66.7l-1.6-0.9c-0.4-0.2-0.5-0.1-0.7,0.1c-0.1,0.2-0.1,0.4,0.3,0.6l5.2,2.8c0.4,0.2,0.5,0.1,0.7-0.1 c0.1-0.2,0.1-0.4-0.3-0.6l-1.7-0.9l0.6-1.1l1.8,1c1,0.5,0.9,1.5,0.5,2.2c-0.4,0.7-1.1,1.3-2.1,0.8L79,67.7 c-1-0.5-0.9-1.5-0.5-2.2c0.4-0.7,1.1-1.3,2.1-0.8l1.7,0.9L81.7,66.7z"></path> <path d="M87.7,67.1l-8-3.5l0.5-1.2l8,3.5L87.7,67.1z"></path> <path d="M88.7,64.7l-8.3-2.9l0.4-1.2l7.2,2.5l0.5-1.6l1.1,0.4L88.7,64.7z"></path> <path d="M90,60.8l-8.5-2.2l0.3-1.3l8.5,2.2L90,60.8z"></path> <path d="M82.5,53.5l1.1,0.2l-0.2,1.1L91,56l-0.2,1.3l-7.5-1.2L83,57.2L81.9,57L82.5,53.5z"></path> <path d="M82.6,52l1.9-0.4c0.9-0.2,1-0.1,1.9-0.2l0,0c-0.7-0.1-1.3-0.1-1.8-0.3l-1.9-0.5l0-1.2l5.4,1.6l3.3,0.1l-0.1,1.3l-3.3-0.1 l-5.5,1.1L82.6,52z"></path> </g> </g> <g> <g> <path d="M17.1,38.6c-0.4,1.1-1.6,1.8-2.8,1.4c-1.2-0.4-1.8-1.6-1.4-2.8c0.4-1.1,1.6-1.8,2.8-1.4C16.8,36.2,17.4,37.5,17.1,38.6z"></path> <path d="M23.7,30.6l-3.7-2.2c-0.8-0.5-1.9-1.2-2.6-1.6l0,0c0.4,0.3,1,0.7,1.4,1l4.4,3.4l-0.7,0.9l-7.1-5.4l1.2-1.6l3.2,1.9 c0.5,0.3,1.4,0.9,2.3,1.5l0,0c-0.7-0.6-1.6-1.3-2.1-1.8l-2.7-2.5l1.2-1.6l7.1,5.4L25,29l-3.3-2.5c-0.8-0.6-1.6-1.3-2.5-2l0,0 c0.5,0.5,2.2,2,2.5,2.4l2.8,2.7L23.7,30.6z"></path> <path d="M20.6,20.6l1.4-1.4l6.9,5.8l-1,0.9l-1.9-1.6L25.4,25l1.5,1.9L26,27.8L20.6,20.6z M25.2,23.6l-2.8-2.5l-0.1,0.1l2.3,2.9 L25.2,23.6z"></path> <path d="M25.6,16.3l1.8,1.9c1.2,1.2,2.4,2.4,3.5,3.7l0,0l-0.3-0.4c-0.5-0.7-1-1.4-1.6-2.1l-2.7-3.7l0.9-0.6l5.2,7.2L31,23.5 l-3.1-3.3c-0.8-0.8-1.5-1.5-2.2-2.3l0,0c0.2,0.3,0.5,0.6,0.7,0.9l3.8,5.2l-0.9,0.6L24,17.5L25.6,16.3z"></path> <path d="M31.9,12.5l3.6,6.7c0.6,1-0.1,1.8-0.8,2.1c-0.7,0.4-1.7,0.5-2.2-0.5l-3.6-6.7l1.2-0.6l3.5,6.6c0.2,0.4,0.4,0.4,0.6,0.3 c0.2-0.1,0.3-0.3,0.1-0.7l-3.5-6.6L31.9,12.5z"></path> <path d="M36.7,20.1l-3.3-8.3l2.8-1.1l0.4,1.1l-1.5,0.6l0.8,2.1l1.5-0.6l0.4,1.1l-1.5,0.6l1.6,4L36.7,20.1z"></path> <path d="M38.2,10.1l1.9-0.5l3.3,8.3l-1.3,0.3L41.2,16l-0.9,0.2l0.4,2.4L39.5,19L38.2,10.1z M40.8,14.9l-1.2-3.5l-0.1,0l0.7,3.7 L40.8,14.9z"></path> <path d="M45.1,12l-0.2-1.8c-0.1-0.4-0.2-0.5-0.5-0.5c-0.3,0-0.4,0.2-0.3,0.6l0.8,6c0.1,0.4,0.2,0.5,0.5,0.5 c0.3,0,0.4-0.2,0.3-0.6l-0.3-1.9l1.3-0.2l0.3,2c0.2,1.2-0.7,1.6-1.5,1.7c-0.8,0.1-1.8-0.1-1.9-1.3l-0.9-6.2 c-0.2-1.2,0.7-1.6,1.5-1.7c0.8-0.1,1.8,0.1,1.9,1.3l0.3,1.9L45.1,12z"></path> <path d="M51.2,8.4l0,1.2l-1.2,0l0.1,7.8l-1.3,0l-0.1-7.8l-1.2,0l0-1.2L51.2,8.4z"></path> <path d="M56.2,8.9l-0.8,7.5c-0.1,1.2-1.1,1.4-1.9,1.3c-0.8-0.1-1.7-0.5-1.6-1.7l0.8-7.5l1.3,0.1l-0.8,7.4c0,0.4,0.1,0.6,0.4,0.6 c0.3,0,0.4-0.1,0.5-0.5l0.8-7.4L56.2,8.9z"></path> <path d="M55.8,17.8l2-8.7l1.7,0.4c1,0.2,1.6,0.8,1.3,1.9l-0.3,1.2c-0.2,0.6-0.5,1.1-1.6,1l0,0c0.6,0.2,1.1,0.5,1,1.4 c-0.2,1.2-0.6,2.4-0.6,3.6l-1.3-0.3c0-1.1,0.4-2.3,0.6-3.4c0.1-0.5,0-0.8-0.6-0.9l-0.9,4L55.8,17.8z M58.3,13l0.2,0.1 c0.5,0.1,0.6-0.1,0.7-0.4l0.4-1.6c0.1-0.3-0.1-0.5-0.4-0.5l-0.3-0.1L58.3,13z"></path> <path d="M59.9,18.8l3-8.4l2.8,1l-0.4,1.1L63.8,12L63,14.2l1.5,0.5L64,15.8l-1.5-0.5l-1.1,2.9l1.6,0.6l-0.4,1.1L59.9,18.8z"></path> <path d="M67.1,12.1l1.4,0.7c1.2,0.6,1.5,1.2,0.8,2.6l-2.4,4.7c-0.4,0.8-1.2,1.2-2.1,0.7L63.1,20L67.1,12.1z M64.8,19.7l0.3,0.1 c0.3,0.2,0.5,0.1,0.7-0.4l2.5-4.9c0.3-0.5,0.2-0.7-0.1-0.8l-0.3-0.1L64.8,19.7z"></path> <path d="M68.8,23.3l5.3-7.2l1.1,0.8l-5.3,7.2L68.8,23.3z"></path> <path d="M77.9,19.1l-1.4,2.2c-0.9,1.4-1.9,2.8-2.9,4.2l0,0l0.3-0.4c0.6-0.6,1.1-1.3,1.7-2l3-3.4l0.8,0.7l-6,6.6L72,25.8l2.5-3.7 c0.6-1,1.2-1.8,1.8-2.6l0,0c-0.3,0.3-0.5,0.6-0.7,0.9l-4.3,4.8l-0.8-0.7l6-6.6L77.9,19.1z"></path> <path d="M83.1,24.8l1.2,1.6l-6.6,6.1l-0.8-1.1l1.8-1.6L78.1,29L76,30.2l-0.7-1L83.1,24.8z M79.5,29l2.8-2.4l-0.1-0.1l-3.2,1.9 L79.5,29z"></path> <path d="M83,38.7c-0.4-1.1,0.2-2.4,1.4-2.8c1.1-0.4,2.4,0.2,2.8,1.4c0.4,1.1-0.2,2.4-1.4,2.8C84.6,40.5,83.4,39.8,83,38.7z"></path> </g> </g> </g> </svg> 